<svg width="78" height="61" viewBox="0 0 78 61" fill="none" xmlns="http://www.w3.org/2000/svg">
<path d="M16.3606 45.5298C15.9962 46.282 15.7425 47.0829 15.6073 47.9076C15.4076 49.0512 15.335 50.3127 15.1716 51.7285C15.1178 52.3044 15.033 52.877 14.9175 53.4438C14.9175 53.5981 14.8358 53.7615 14.7723 53.9521C14.7069 54.1508 14.6281 54.3449 14.5363 54.5329C14.4238 54.7646 14.2869 54.9837 14.1279 55.1864C13.5557 55.874 12.7082 56.2729 11.8136 56.2755C11.2681 56.2728 10.734 56.1188 10.2707 55.8308C9.66753 55.4147 9.19532 54.8355 8.90936 54.1608C8.55048 53.3181 8.31216 52.429 8.20145 51.5198L8.11977 50.9117C8.11977 50.83 8.11977 50.6848 8.11977 50.6485V50.0677C8.11977 49.7409 8.11977 49.3597 8.11977 48.9604C8.12858 48.7851 8.12858 48.6094 8.11977 48.434C8.11977 47.9984 7.69321 47.6626 7.38464 47.9349C7.10845 48.2027 6.90001 48.5325 6.77656 48.8969C6.62777 49.3236 6.50949 49.7603 6.42261 50.2038L6.35 50.4761V50.6213L6.23202 50.9389C6.0868 51.3292 5.93252 51.7194 5.78731 52.1188C5.69655 52.3366 5.48781 52.3638 5.18831 52.4092C4.78633 52.4441 4.38807 52.3092 4.09014 52.0371C3.69469 51.6739 3.38473 51.2276 3.18257 50.7302C3.03977 50.4759 2.92997 50.2045 2.85584 49.9224C2.84616 49.4082 2.88873 48.8943 2.9829 48.3886C3.11915 47.6333 3.30408 46.8875 3.53652 46.156C3.74947 45.5102 4.05519 44.8987 4.44409 44.3409C4.73565 43.8876 5.08668 43.4755 5.48781 43.1156C5.80897 42.8388 6.16617 42.6068 6.54967 42.4259C6.92045 42.2613 7.31619 42.1601 7.72044 42.1264C8.19699 42.0828 8.67729 42.1448 9.12718 42.3079C9.34282 42.3961 9.55207 42.4992 9.75341 42.6165C9.89325 42.7201 10.0266 42.8323 10.1527 42.9523C10.3962 43.2106 10.6121 43.4934 10.7971 43.7963C10.9422 44.0898 11.0665 44.393 11.1692 44.7039C11.2868 45.1185 11.3599 45.5444 11.387 45.9745C11.4778 46.8821 11.4778 47.9258 11.5141 48.8334V49.6229L11.5595 50.2673C11.5595 50.5396 11.6049 50.8028 11.6412 51.066C11.7031 51.5375 11.8189 52.0003 11.986 52.4455C12.026 52.5701 12.0875 52.6869 12.1676 52.7904C12.222 52.7904 12.0768 52.863 11.9951 52.9628L11.8681 53.1262L11.7955 53.2169C11.7755 53.2523 11.7573 53.2887 11.741 53.3258V53.1716V53.0627C11.741 53.0082 11.8408 53.5346 11.7864 53.3077C11.7864 53.3077 11.7864 53.3803 11.7864 53.3077C11.7864 53.2351 11.7864 53.3077 11.6865 53.1897L11.5776 53.0899H11.5232L11.4233 53.0173C11.3456 52.9481 11.2566 52.8929 11.1601 52.8539C11.1644 52.8086 11.1644 52.7631 11.1601 52.7178C11.2912 52.2218 11.3733 51.7141 11.4052 51.2021L11.5504 49.2781C11.6157 47.8509 11.8534 46.437 12.2583 45.0669C12.6231 44.0225 13.2974 43.1139 14.1914 42.4622C14.6717 42.1419 15.2121 41.9227 15.7797 41.8178C16.3557 41.6818 16.9554 41.6818 17.5313 41.8178C18.3486 42.0328 19.0842 42.4843 19.646 43.1156C20.1222 43.6403 20.5308 44.2227 20.8621 44.8491C21.4601 45.9863 21.9875 47.1593 22.4413 48.3614C23.1519 50.1001 23.9547 51.7997 24.8464 53.4529C25.0279 53.8069 25.2548 54.1245 25.4272 54.4422C25.7358 55.0502 25.8901 55.4133 25.7993 55.74C25.6081 56.1792 25.3374 56.5792 25.0007 56.9198C24.8192 57.1377 24.6649 57.3918 24.4924 57.6187C24.2085 58.0098 23.7235 58.201 23.249 58.1088C22.6375 58.0163 22.0885 57.683 21.7243 57.183C20.7122 55.6515 19.9323 53.9785 19.41 52.2186C18.8745 50.585 18.448 48.9513 17.9216 47.5355C17.7417 47.0587 17.5357 46.5921 17.3044 46.1379C17.1606 45.8704 16.9904 45.618 16.7962 45.3846C16.7236 45.312 16.7962 45.2666 16.6782 45.3846C16.5602 45.5026 16.5058 45.5298 16.4332 45.6568L16.3606 45.5298Z" fill="#F8AF2A"/>
<path d="M58.962 28.1406L60.9859 26.7429L62.9463 25.2636C63.6179 24.7916 64.2259 24.2653 64.8612 23.7479C65.4965 23.2306 66.1137 22.7133 66.6764 22.1688C67.8345 21.1561 68.9117 20.0546 69.8983 18.8743C70.7613 17.8651 71.4181 16.6965 71.8314 15.4345C72.0528 14.6611 72.087 13.846 71.9313 13.0567C71.7352 12.2727 71.3799 11.5375 70.8875 10.8967C69.7495 9.49661 68.3263 8.35497 66.7127 7.54772C64.8873 6.60224 62.9598 5.8684 60.9678 5.36047C56.7761 4.31464 52.473 3.78132 48.1528 3.77221C44.2573 3.77807 40.3657 4.02054 36.4995 4.49827C31.5442 5.0882 26.5797 5.90501 21.6607 6.9215C20.1269 7.21192 20.2902 7.01226 21.5155 6.44956C22.1235 6.16821 23.0039 5.79611 24.0748 5.36047C25.1458 4.92483 26.4164 4.45289 27.814 4.04449L31.5532 2.9554C32.8057 2.62867 34.0672 2.28379 35.3378 1.97521C37.8978 1.33422 40.4956 0.855281 43.1158 0.541247C48.4036 -0.180416 53.7649 -0.180416 59.0528 0.541247C62.3927 0.988145 65.6716 1.81015 68.8274 2.9917C70.541 3.67007 72.1392 4.60998 73.5649 5.77795C75.1558 7.06189 76.3746 8.74762 77.0954 10.6607C77.8423 12.8376 77.8804 15.1951 77.2043 17.3949C76.5891 19.3701 75.6171 21.2157 74.3363 22.8404C71.9915 25.6735 69.3472 28.2448 66.4495 30.5094C62.9847 33.2383 59.3062 35.6845 55.4497 37.8244C49.6275 41.0302 43.4861 43.6188 37.1258 45.5479C35.9187 46.0017 34.6844 46.3102 33.4955 46.6914C32.3065 47.0726 31.0722 47.481 29.8652 47.7896C27.4056 48.3704 24.9552 49.1328 22.414 49.4868C21.3067 49.6774 20.2267 49.9224 19.0922 50.0767C18.211 50.195 17.3199 50.2224 16.433 50.1584C15.8185 50.1418 15.2086 50.0473 14.6179 49.877C13.7433 49.6439 13.0141 49.0406 12.6212 48.2252C12.3955 47.8612 12.2012 47.4787 12.0404 47.0817C11.6592 45.7929 13.2928 44.6312 16.1335 44.0504C18.2482 43.6964 20.3538 43.1428 22.4866 42.7707C23.5575 42.5983 24.6103 42.3169 25.6722 42.0537L28.8577 41.3186C33.1304 40.2239 37.3339 38.8753 41.4458 37.2799C47.6003 34.905 53.4476 31.8 58.8622 28.0317L58.962 28.1406Z" fill="#F8AF2A"/>
<path d="M17.3407 59.9057C13.8518 59.2427 10.4311 58.2615 7.12136 56.9743C5.80837 56.5035 4.5489 55.895 3.364 55.1591C2.05083 54.3355 1.00675 53.1463 0.359928 51.7376C0.0104367 50.8749 -0.0871236 49.9308 0.0785793 49.0148C0.23635 48.1819 0.577357 47.3945 1.07691 46.7096C1.45221 46.2149 1.85204 45.7394 2.27491 45.2847C2.66517 44.8581 3.09173 44.4588 3.49106 44.0504C4.34418 43.2608 5.1973 42.4984 6.0958 41.8178C7.66591 40.5653 9.27231 39.4399 10.7517 38.2692C12.6666 36.7626 14.3094 35.1652 16.1971 33.7313C16.778 33.2866 17.4314 33.9219 17.6855 35.02C18.0012 36.3834 17.6204 37.8146 16.669 38.8409C14.817 40.6199 12.8526 42.2781 10.788 43.8054C8.88994 45.1638 7.07178 46.6304 5.34251 48.198C4.95419 48.5234 4.61757 48.9059 4.34418 49.3325C4.22638 49.5505 4.22638 49.8133 4.34418 50.0313C4.54538 50.3995 4.83555 50.7116 5.18823 50.9389C5.69891 51.3116 6.24271 51.6367 6.81279 51.91C9.70204 53.279 12.7508 54.2821 15.8885 54.8959C16.8778 55.1047 17.8852 55.2953 18.8835 55.4677L20.3992 55.7037L21.3521 55.8398C21.7605 55.8398 22.1962 55.9396 22.6409 55.9487C22.9313 56.0213 22.9767 55.7309 22.9767 55.5403C22.9945 55.3289 22.9945 55.1164 22.9767 54.905C22.9149 54.4489 22.8239 53.9972 22.7044 53.5527C22.5048 52.8176 22.2779 52.0734 22.0328 51.3382C21.2705 49.0602 20.2177 46.9183 19.2193 44.7129C19.0015 44.2228 18.7474 43.8054 18.5568 43.2608C17.8398 41.4003 17.9306 40.6561 18.9924 39.8665C19.2203 39.675 19.4631 39.502 19.7185 39.3492C20.6261 38.9045 21.5336 39.3492 22.296 40.647C23.4305 42.5698 24.4253 44.5716 25.2729 46.637C25.7085 47.6898 26.1351 48.7698 26.4981 49.8861C26.6796 50.4397 26.852 51.0115 27.0154 51.5924L27.2786 52.5453C27.4147 53.0898 27.5599 53.6344 27.6598 54.188C28.0047 55.8216 28.1408 57.4734 27.5781 58.5716L27.3875 58.9982C27.3117 59.1387 27.2236 59.2724 27.1243 59.3975L27.0426 59.4883V59.5427C27.0426 59.4973 27.1334 59.6335 26.9337 59.4519L26.7613 59.5972L26.4436 59.8604C26.2395 60.0711 26.0037 60.2487 25.7448 60.3868C25.4125 60.5085 25.0636 60.5788 24.7102 60.5955C23.9006 60.6583 23.0874 60.6583 22.2779 60.5955L21.0254 60.4684L20.0362 60.3504C19.1286 60.2325 18.2755 60.0963 17.4042 59.9511L17.3407 59.9057Z" fill="#F8AF2A"/>
</svg>
