<svg width="47" height="35" viewBox="0 0 47 35" fill="none" xmlns="http://www.w3.org/2000/svg">
<path d="M2 14.75L7.96488 8.04138C8.76234 7.14395 9.74086 6.42564 10.836 5.93374C11.9312 5.44184 13.1181 5.18751 14.3186 5.1875H14.75M2 32.8125H13.6875L22.1875 26.4375C22.1875 26.4375 23.9088 25.2751 26.4375 23.25C31.75 19 26.4375 12.2723 21.125 15.8125C16.7985 18.6961 12.625 21.125 12.625 21.125" stroke="#AE410A" stroke-width="4" stroke-linecap="round" stroke-linejoin="round"/>
<path d="M14.75 20.0625V6.25C14.75 5.12283 15.1978 4.04183 15.9948 3.2448C16.7918 2.44777 17.8728 2 19 2H40.25C41.3772 2 42.4582 2.44777 43.2552 3.2448C44.0522 4.04183 44.5 5.12283 44.5 6.25V19C44.5 20.1272 44.0522 21.2082 43.2552 22.0052C42.4582 22.8022 41.3772 23.25 40.25 23.25H26.4375" stroke="#AE410A" stroke-width="4"/>
<path d="M39.1875 12.6463L39.2088 12.6229M20.0625 12.6463L20.0838 12.6229M29.625 16.875C28.4978 16.875 27.4168 16.4272 26.6198 15.6302C25.8228 14.8332 25.375 13.7522 25.375 12.625C25.375 11.4978 25.8228 10.4168 26.6198 9.6198C27.4168 8.82277 28.4978 8.375 29.625 8.375C30.7522 8.375 31.8332 8.82277 32.6302 9.6198C33.4272 10.4168 33.875 11.4978 33.875 12.625C33.875 13.7522 33.4272 14.8332 32.6302 15.6302C31.8332 16.4272 30.7522 16.875 29.625 16.875Z" stroke="#AE410A" stroke-width="4" stroke-linecap="round" stroke-linejoin="round"/>
</svg>
