<svg width="64" height="26" viewBox="0 0 64 26" fill="none" xmlns="http://www.w3.org/2000/svg">
<path d="M61.6773 9.968C60.9528 9.23317 60.0898 8.64929 59.1382 8.25015C58.1866 7.85102 57.1653 7.64454 56.1333 7.64267C54.6133 7.64267 53.0907 8.208 52.2533 8.76533C50.5173 9.92267 49.0907 11.176 46.5227 14.4933V16.8773C48.7013 14.04 50.7627 11.8027 52.328 10.5733C53.3573 9.74667 54.816 9.23733 56.1333 9.23733C59.5333 9.23733 62.4053 12.1093 62.4053 15.5093V16.944C62.4053 18.624 61.7467 20.2053 60.544 21.392C59.3739 22.5612 57.7875 23.2182 56.1333 23.2187C53.3387 23.2187 50.88 21.3013 50.2133 18.6827L49.088 20.0427C49.9067 22.7893 52.8667 24.8133 56.1333 24.8133C57.1652 24.811 58.1864 24.6043 59.1379 24.2052C60.0895 23.8061 60.9526 23.2225 61.6773 22.488C63.176 20.9893 64 19.0213 64 16.944V15.5093C64 13.4347 63.1733 11.464 61.6773 9.968ZM27.544 9.23733C28.6267 9.23733 29.5627 9.46933 30.408 9.94667C30.7505 9.52727 31.1164 9.12752 31.504 8.74934C30.6107 8.06667 29.096 7.64267 27.544 7.64267C25.3307 7.64267 23.32 8.44267 21.8853 9.89067C20.4613 11.3307 19.672 13.3227 19.672 15.5093V24.8133H21.2667V15.5067C21.2667 11.8133 23.848 9.23733 27.544 9.23733ZM42.6853 24.808V15.5067C42.6853 12.648 40.4453 10.4053 37.584 10.4053C36.2507 10.4053 34.9813 10.9467 34.0027 11.9253C33.5252 12.3922 33.1451 12.9491 32.8842 13.5639C32.6233 14.1786 32.4868 14.8389 32.4827 15.5067V16.9413C32.4827 19.7067 34.8213 22.0427 37.584 22.0427C38.344 22.0427 39.3733 21.856 40.0053 21.3387V19.656C39.3867 20.1547 38.4853 20.4507 37.584 20.4507C37.122 20.4553 36.6637 20.3677 36.236 20.1929C35.8083 20.0182 35.4197 19.7598 35.0931 19.433C34.7665 19.1061 34.5085 18.7174 34.334 18.2896C34.1596 17.8617 34.0723 17.4033 34.0773 16.9413V15.5067C34.0723 15.0449 34.1596 14.5868 34.3341 14.1592C34.5086 13.7317 34.7668 13.3433 35.0934 13.0169C35.4201 12.6905 35.8087 12.4326 36.2364 12.2584C36.6641 12.0843 37.1222 11.9973 37.584 12.0027C38.046 11.997 38.5045 12.0836 38.9325 12.2576C39.3605 12.4317 39.7494 12.6895 40.0763 13.0159C40.4033 13.3424 40.6616 13.7309 40.8363 14.1586C41.011 14.5863 41.0983 15.0447 41.0933 15.5067V24.8107L42.6853 24.808ZM0 14.5893V15.104C0 17.8667 1.048 20.4453 2.952 22.3627C3.89018 23.3087 5.00755 24.0582 6.23876 24.5673C7.46998 25.0765 8.79035 25.3351 10.1227 25.328C12.3093 25.328 14.2507 24.832 15.888 23.8587C17.2373 23.0533 17.8347 22.24 17.888 22.1653V13.5867H9.73333V15.1787H16.2933V21.6693L16.288 21.6747C15.52 22.4427 13.696 23.728 10.1227 23.728C8.99388 23.7387 7.87442 23.5228 6.83054 23.0932C5.78666 22.6635 4.83957 22.0288 4.04533 21.2267C2.45114 19.5887 1.56926 17.3869 1.592 15.1013V14.5867C1.592 12.3733 2.592 10.1707 4.328 8.536C6.09036 6.8774 8.4199 5.95493 10.84 5.95734C13.0987 5.95734 14.6747 6.30133 15.9413 7.06667V5.28C14.624 4.72 13.048 4.46667 10.84 4.46667C4.96533 4.46667 0 9.104 0 14.5893ZM27.544 12.0053C28.1467 12.0053 28.6613 12.104 29.0667 12.304C29.2667 11.808 29.4693 11.4 29.7653 10.904C29.3333 10.5947 28.3013 10.408 27.544 10.408C24.6373 10.408 22.4427 12.6027 22.4427 15.5093V24.8133H24.0373V15.5067C24.0373 13.4427 25.4773 12.0053 27.544 12.0053ZM15.9413 10.1307V8.24533C14.4987 7.472 12.9253 7.128 10.84 7.128C8.70933 7.128 6.69333 7.90933 5.15467 9.32533C3.616 10.744 2.768 12.6133 2.768 14.584V15.0987C2.768 19.2107 6.06667 22.5547 10.1227 22.5547C13.4213 22.5547 14.776 21.4747 15.12 21.1333V16.3493H9.73333V17.944H13.6267V20.3413L13.6133 20.344C13.1147 20.544 12.072 20.96 10.12 20.96C9.36201 20.9635 8.611 20.8152 7.9112 20.524C7.21141 20.2327 6.57699 19.8043 6.04533 19.264C4.95378 18.1537 4.34761 16.6556 4.36 15.0987V14.584C4.36 11.4053 7.328 8.72267 10.84 8.72267C13.2667 8.72267 14.7067 9.11467 15.9413 10.1307ZM53.5547 13.1333C54.2747 12.4133 55.216 12.0027 56.1333 12.0027C56.5951 11.9973 57.0533 12.0843 57.481 12.2584C57.9087 12.4326 58.2972 12.6905 58.6239 13.0169C58.9506 13.3433 59.2087 13.7317 59.3832 14.1592C59.5577 14.5868 59.645 15.0449 59.64 15.5067V16.9413C59.64 18.9093 58.0987 20.4507 56.1333 20.4507C55.1813 20.4507 54.2613 19.928 53.5413 18.984C52.895 18.1138 52.5086 17.0782 52.4267 15.9973L51.136 17.5733C51.3893 18.7787 52.016 19.9333 52.9093 20.7467C53.8267 21.5813 54.9733 22.0427 56.1333 22.0427C57.4859 22.0413 58.7826 21.5033 59.739 20.547C60.6953 19.5906 61.2333 18.2939 61.2347 16.9413V15.5067C61.2347 14.176 60.696 12.9013 59.7147 11.9253C59.2477 11.448 58.6907 11.068 58.0761 10.8071C57.4614 10.5462 56.8011 10.4096 56.1333 10.4053C55.2907 10.4053 53.952 10.7093 52.3547 12.144L52.3493 12.1493C51.9227 12.576 50.92 13.5787 50.3093 14.2933C49.2853 15.4133 47.7947 17.104 46.5227 18.7947V21.2827C47.9333 19.4693 48.744 18.456 50.0693 16.9253C51.256 15.5413 52.7253 13.8587 53.5547 13.1333ZM29.7173 16.9413C29.7173 19.0187 30.544 20.9867 32.0427 22.488C32.7676 23.2212 33.6304 23.8037 34.5815 24.2018C35.5325 24.6 36.553 24.806 37.584 24.808C38.464 24.808 39.368 24.6213 40.0053 24.3067V22.7147C39.2369 23.0325 38.4155 23.2026 37.584 23.216C34.1867 23.216 31.312 20.344 31.312 16.9413V15.5067C31.312 12.1067 34.1867 9.23467 37.584 9.23467C38.4093 9.23007 39.2273 9.38923 39.9906 9.70293C40.754 10.0166 41.4475 10.4787 42.0311 11.0622C42.6147 11.6458 43.0767 12.3393 43.3904 13.1027C43.7041 13.866 43.8633 14.684 43.8587 15.5093V24.8107H45.4533V15.2C45.3541 13.1705 44.4809 11.2561 43.0133 9.85067C41.5611 8.43369 39.613 7.63955 37.584 7.63734C35.5093 7.63734 33.5413 8.464 32.0427 9.96534C31.308 10.6894 30.7243 11.552 30.3251 12.5032C29.926 13.4543 29.7194 14.4752 29.7173 15.5067V16.9413ZM48.1653 10.7733C48.6439 10.1662 49.1758 9.60303 49.7547 9.09067V0.674667H48.1653V10.7733ZM50.9307 8.43733V0.674667H52.5227V7.34667C51.9566 7.65669 51.4232 8.02298 50.9307 8.44" fill="#7B7B7B"/>
</svg>
