<svg width="25" height="33" viewBox="0 0 25 33" fill="none" xmlns="http://www.w3.org/2000/svg">
<path d="M12.5 0C9.186 0.00405484 6.00885 1.37123 3.66549 3.80163C1.32214 6.23203 0.00392292 9.52719 1.32987e-05 12.9643C-0.00395589 15.7731 0.880672 18.5057 2.51819 20.7429C2.51819 20.7429 2.8591 21.2084 2.91478 21.2756L12.5 33L22.0898 21.2697C22.1398 21.2072 22.4818 20.7429 22.4818 20.7429L22.4829 20.7393C24.1197 18.5031 25.0039 15.7718 25 12.9643C24.9961 9.52719 23.6779 6.23203 21.3345 3.80163C18.9912 1.37123 15.814 0.00405484 12.5 0ZM12.5 17.6786C11.601 17.6786 10.7222 17.4021 9.97468 16.8841C9.22719 16.3661 8.64459 15.6298 8.30055 14.7684C7.95652 13.9069 7.8665 12.9591 8.04189 12.0446C8.21728 11.1301 8.65019 10.2901 9.28588 9.63078C9.92157 8.97148 10.7315 8.52248 11.6132 8.34058C12.495 8.15868 13.4089 8.25204 14.2395 8.60885C15.07 8.96567 15.7799 9.56991 16.2794 10.3452C16.7789 11.1204 17.0455 12.0319 17.0455 12.9643C17.0439 14.2141 16.5646 15.4123 15.7125 16.2961C14.8603 17.1798 13.7051 17.677 12.5 17.6786Z" fill="#AE410A"/>
</svg>
