<svg width="192" height="44" viewBox="0 0 192 44" fill="none" xmlns="http://www.w3.org/2000/svg">
<path fill-rule="evenodd" clip-rule="evenodd" d="M24.789 3.32982C8.83325 3.71992 0.288441 5.01999 2.19179 6.73642C4.01414 8.40083 29.1221 21.248 29.9725 21.8722C30.3775 22.1843 30.2965 22.3403 29.5676 22.6524C28.5147 23.0945 22.1567 27.2298 8.06382 35.9679C-1.00745 41.5853 -1.08845 41.6631 1.38185 42.7814C3.64967 43.7956 16.1227 43.7179 34.1032 42.5996C90.0292 39.1407 159.076 38.7764 177.948 38.5423C186.816 38.4383 188.072 38.4643 188.963 38.8544C190.137 39.3485 192 38.5683 192 37.5801C192 36.8259 171.144 23.5366 166.406 21.3C164.26 20.2858 162.356 19.3235 162.235 19.2195C162.113 19.0895 166.082 16.3328 171.023 13.056C181.633 6.06025 192.607 -0.0772836 177.421 0.000735822C93.1475 0.286807 35.4396 3.04375 24.789 3.32982ZM179.486 3.25154C179.486 3.74567 164.26 13.4981 158.671 17.5551C157.942 18.0752 157.74 18.8294 158.226 19.4796C159.805 21.7421 174.06 29.284 183.698 35.6036C107.281 35.6036 102.3 36.0457 14.9888 40.9349C5.715 41.455 5.87699 41.8714 12.8829 37.1382C20.9013 31.7289 24.1815 29.414 30.175 25.8772C33.8197 23.7186 34.9536 22.4183 31.3089 19.5316C26.3683 15.6046 9.27872 7.0745 10.2911 6.86645C14.4623 6.06025 85.7771 4.73392 103.15 4.13577C108.212 3.95373 179.486 2.96547 179.486 3.25154Z" fill="#F8AF2A"/>
</svg>
